<svg xmlns="http://www.w3.org/2000/svg"  viewBox="0 0 64 64" width="64px" height="64px"><path d="M15.331,49.382h3.544c0.591,0,1.044,0.146,1.36,0.439c0.316,0.293,0.474,0.655,0.474,1.087 c0,0.362-0.113,0.673-0.338,0.932c-0.15,0.173-0.371,0.309-0.66,0.41c0.44,0.106,0.764,0.288,0.972,0.545 c0.208,0.258,0.311,0.582,0.311,0.972c0,0.318-0.074,0.603-0.221,0.857s-0.35,0.454-0.606,0.602 c-0.159,0.092-0.398,0.159-0.719,0.201c-0.426,0.056-0.709,0.084-0.848,0.084h-3.268V49.382z M17.24,51.785h0.823 c0.295,0,0.501-0.051,0.616-0.153c0.116-0.102,0.173-0.249,0.173-0.441c0-0.178-0.058-0.318-0.173-0.418 c-0.116-0.1-0.317-0.15-0.604-0.15H17.24V51.785z M17.24,54.192h0.965c0.326,0,0.556-0.058,0.69-0.173s0.201-0.271,0.201-0.466 c0-0.181-0.066-0.327-0.198-0.437c-0.132-0.11-0.364-0.165-0.696-0.165H17.24V54.192z"/><path d="M21.745,52.45c0-1,0.279-1.779,0.836-2.336s1.333-0.836,2.328-0.836c1.02,0,1.805,0.274,2.357,0.821 c0.552,0.547,0.827,1.314,0.827,2.301c0,0.716-0.12,1.303-0.361,1.761c-0.241,0.458-0.589,0.815-1.045,1.07 s-1.023,0.382-1.703,0.382c-0.691,0-1.263-0.11-1.715-0.33s-0.82-0.568-1.101-1.045C21.886,53.762,21.745,53.166,21.745,52.45z M23.638,52.458c0,0.618,0.115,1.063,0.345,1.333s0.543,0.405,0.938,0.405c0.407,0,0.722-0.132,0.944-0.397 c0.223-0.265,0.334-0.74,0.334-1.425c0-0.577-0.116-0.998-0.349-1.264c-0.233-0.266-0.548-0.399-0.947-0.399 c-0.382,0-0.688,0.135-0.919,0.405C23.754,51.387,23.638,51.834,23.638,52.458z"/><path d="M29.113,49.382h1.893V54h2.955v1.509h-4.848V49.382z"/><path d="M34.817,49.382h5.073v1.308h-3.176v0.974h2.946v1.25h-2.946v1.208h3.268v1.387h-5.165V49.382z"/><path d="M40.572,49.382h5.754v1.513h-1.931v4.614h-1.893v-4.614h-1.931V49.382z"/><path d="M46.652,52.45c0-1,0.279-1.779,0.836-2.336s1.333-0.836,2.328-0.836c1.02,0,1.805,0.274,2.357,0.821S53,51.413,53,52.4 c0,0.716-0.12,1.303-0.361,1.761c-0.241,0.458-0.589,0.815-1.045,1.07s-1.023,0.382-1.703,0.382c-0.691,0-1.263-0.11-1.715-0.33 c-0.453-0.22-0.82-0.568-1.101-1.045C46.793,53.762,46.652,53.166,46.652,52.45z M48.545,52.458c0,0.618,0.115,1.063,0.345,1.333 s0.543,0.405,0.938,0.405c0.407,0,0.722-0.132,0.944-0.397c0.223-0.265,0.334-0.74,0.334-1.425c0-0.577-0.116-0.998-0.349-1.264 c-0.233-0.266-0.548-0.399-0.947-0.399c-0.382,0-0.688,0.135-0.919,0.405S48.545,51.834,48.545,52.458z"/><path d="M56,12v44h4V12H56z M4,56h8V12H4V56z"/><g><path d="M40,12v33h4V12H40z"/></g><g><path d="M48,12v33h4V12H48z"/></g><g><path d="M32,12v33h4V12H32z"/></g><g><path d="M24,12v33h4V12H24z"/></g><g><path d="M16,12v33h4V12H16z"/></g></svg>