<svg xmlns="http://www.w3.org/2000/svg" xmlns:xlink="http://www.w3.org/1999/xlink" viewBox="0,0,256,256" width="64px" height="64px" fill-rule="nonzero"><g fill="#495057" fill-rule="nonzero" stroke="none" stroke-width="1" stroke-linecap="butt" stroke-linejoin="miter" stroke-miterlimit="10" stroke-dasharray="" stroke-dashoffset="0" font-family="none" font-weight="none" font-size="none" text-anchor="none" style="mix-blend-mode: normal"><g transform="scale(4,4)"><path d="M38,0c-2.20914,0 -4,1.79086 -4,4v6c0,2.20914 1.79086,4 4,4h1v4h-6c-0.55228,0 -1,0.44772 -1,1c0,0.55228 0.44772,1 1,1h25v34h-52v-34h3c0.55228,0 1,-0.44772 1,-1c0,-0.55228 -0.44772,-1 -1,-1h-4c-0.55228,0 -1,0.44772 -1,1v35h-3c-0.55228,0 -1,0.44772 -1,1v4c0.00331,2.76005 2.23995,4.99669 5,5h54c2.76005,-0.00331 4.99669,-2.23995 5,-5v-4c0,-0.55228 -0.44772,-1 -1,-1h-3v-35c0,-0.55228 -0.44772,-1 -1,-1h-6v-4h1c2.20914,0 4,-1.79086 4,-4v-6c0,-2.20914 -1.79086,-4 -4,-4zM13.04297,2c-0.27258,-0.01172 -0.53812,0.08843 -0.73505,0.27726c-0.19694,0.18882 -0.30817,0.44991 -0.30792,0.72274v25h-3c-0.55228,0 -1,0.44772 -1,1v4c0,0.55228 0.44772,1 1,1h24c0.55228,0 1,-0.44772 1,-1v-4c0,-0.55228 -0.44772,-1 -1,-1h-3v-25c0.00018,-0.37877 -0.21365,-0.72514 -0.55235,-0.8947c-0.3387,-0.16956 -0.74413,-0.1332 -1.04726,0.09392l-2.07031,1.55273l-2.07031,-1.55273c-0.35579,-0.26725 -0.84538,-0.26725 -1.20117,0l-2.06641,1.55078l-2.06445,-1.55078c-0.35579,-0.26725 -0.84538,-0.26725 -1.20117,0l-2.06445,1.54883l-2.0625,-1.54883c-0.16123,-0.12099 -0.35526,-0.19043 -0.55664,-0.19922zM38,2h16c1.10457,0 2,0.89543 2,2v6c0,1.10457 -0.89543,2 -2,2h-16c-1.10457,0 -2,-0.89543 -2,-2v-6c0,-1.10457 0.89543,-2 2,-2zM38,3c-0.55228,0 -1,0.44772 -1,1v6c0,0.55228 0.44772,1 1,1h16c0.55228,0 1,-0.44772 1,-1v-6c0,-0.55228 -0.44772,-1 -1,-1zM18.32617,4.25l2.06641,1.55078c0.35579,0.26725 0.84538,0.26725 1.20117,0l2.06641,-1.55078l2.07031,1.55078c0.3554,0.26628 0.84382,0.26628 1.19922,0l1.07031,-0.80078v27h-14v-27l1.0625,0.80078c0.3554,0.26628 0.84382,0.26628 1.19922,0zM39,5h14v4h-14zM16,9c-0.55228,0 -1,0.44772 -1,1c0,0.55228 0.44772,1 1,1h10c0.55228,0 1,-0.44772 1,-1c0,-0.55228 -0.44772,-1 -1,-1zM16,12c-0.55228,0 -1,0.44772 -1,1c0,0.55228 0.44772,1 1,1h6c0.55228,0 1,-0.44772 1,-1c0,-0.55228 -0.44772,-1 -1,-1zM25,12c-0.55228,0 -1,0.44772 -1,1c0,0.55228 0.44772,1 1,1h1c0.55228,0 1,-0.44772 1,-1c0,-0.55228 -0.44772,-1 -1,-1zM41,14h10v4h-10zM16,15c-0.55228,0 -1,0.44772 -1,1c0,0.55228 0.44772,1 1,1h6c0.55228,0 1,-0.44772 1,-1c0,-0.55228 -0.44772,-1 -1,-1zM25,15c-0.55228,0 -1,0.44772 -1,1c0,0.55228 0.44772,1 1,1h1c0.55228,0 1,-0.44772 1,-1c0,-0.55228 -0.44772,-1 -1,-1zM16,18c-0.55228,0 -1,0.44772 -1,1c0,0.55228 0.44772,1 1,1h6c0.55228,0 1,-0.44772 1,-1c0,-0.55228 -0.44772,-1 -1,-1zM25,18c-0.55228,0 -1,0.44772 -1,1c0,0.55228 0.44772,1 1,1h1c0.55228,0 1,-0.44772 1,-1c0,-0.55228 -0.44772,-1 -1,-1zM16,21c-0.55228,0 -1,0.44772 -1,1c0,0.55228 0.44772,1 1,1h6c0.55228,0 1,-0.44772 1,-1c0,-0.55228 -0.44772,-1 -1,-1zM25,21c-0.55228,0 -1,0.44772 -1,1c0,0.55228 0.44772,1 1,1h1c0.55228,0 1,-0.44772 1,-1c0,-0.55228 -0.44772,-1 -1,-1zM37,22c-0.55228,0 -1,0.44772 -1,1v7c0,0.55228 0.44772,1 1,1h18c0.55228,0 1,-0.44772 1,-1v-7c0,-0.55228 -0.44772,-1 -1,-1zM23,24c-0.55228,0 -1,0.44772 -1,1c0,0.55228 0.44772,1 1,1h3c0.55228,0 1,-0.44772 1,-1c0,-0.55228 -0.44772,-1 -1,-1zM38,24h16v5h-16zM39.9707,25c-0.54081,0.01585 -0.97094,0.45896 -0.9707,1v1c0,0.55228 0.44772,1 1,1c0.55228,0 1,-0.44772 1,-1v-1c0.00012,-0.27037 -0.10925,-0.52927 -0.30317,-0.71767c-0.19392,-0.1884 -0.45587,-0.29025 -0.72612,-0.28233zM42.9707,25c-0.54081,0.01585 -0.97094,0.45896 -0.9707,1v1c0,0.55228 0.44772,1 1,1c0.55228,0 1,-0.44772 1,-1v-1c0.00012,-0.27037 -0.10925,-0.52927 -0.30317,-0.71767c-0.19392,-0.1884 -0.45587,-0.29025 -0.72612,-0.28233zM45.9707,25c-0.54081,0.01585 -0.97094,0.45896 -0.9707,1v1c0,0.55228 0.44772,1 1,1c0.55228,0 1,-0.44772 1,-1v-1c0.00012,-0.27037 -0.10925,-0.52927 -0.30317,-0.71767c-0.19392,-0.1884 -0.45587,-0.29025 -0.72612,-0.28233zM20,27c-0.55228,0 -1,0.44772 -1,1c0,0.55228 0.44772,1 1,1h6c0.55228,0 1,-0.44772 1,-1c0,-0.55228 -0.44772,-1 -1,-1zM10,30h2v2h-2zM30,30h2v2h-2zM37,32c-0.55228,0 -1,0.44772 -1,1v4c0,0.55228 0.44772,1 1,1h4c0.55228,0 1,-0.44772 1,-1v-4c0,-0.55228 -0.44772,-1 -1,-1zM44,32c-0.55228,0 -1,0.44772 -1,1v4c0,0.55228 0.44772,1 1,1h4c0.55228,0 1,-0.44772 1,-1v-4c0,-0.55228 -0.44772,-1 -1,-1zM51,32c-0.55228,0 -1,0.44772 -1,1v4c0,0.55228 0.44772,1 1,1h4c0.55228,0 1,-0.44772 1,-1v-4c0,-0.55228 -0.44772,-1 -1,-1zM38,34h2v2h-2zM45,34h2v2h-2zM52,34h2v2h-2zM20.9707,36c-0.54081,0.01585 -0.97094,0.45896 -0.9707,1v1c-1.65685,0 -3,1.34315 -3,3v0.55859c0.00017,1.2907 0.82747,2.43602 2.05273,2.8418l0.94727,0.32031v3.2793c-0.55228,0 -1,-0.44772 -1,-1c0,-0.55228 -0.44772,-1 -1,-1c-0.55228,0 -1,0.44772 -1,1c0,1.65685 1.34315,3 3,3v1c0,0.55228 0.44772,1 1,1c0.55228,0 1,-0.44772 1,-1v-1c1.65685,0 3,-1.34315 3,-3v-0.55859c-0.00017,-1.2907 -0.82747,-2.43602 -2.05273,-2.8418l-0.94727,-0.32031v-3.2793c0.55228,0 1,0.44772 1,1c0,0.55228 0.44772,1 1,1c0.55228,0 1,-0.44772 1,-1c0,-1.65685 -1.34315,-3 -3,-3v-1c0.00012,-0.27037 -0.10925,-0.52927 -0.30317,-0.71767c-0.19392,-0.1884 -0.45587,-0.29025 -0.72612,-0.28233zM37,39c-0.55228,0 -1,0.44772 -1,1v4c0,0.55228 0.44772,1 1,1h4c0.55228,0 1,-0.44772 1,-1v-4c0,-0.55228 -0.44772,-1 -1,-1zM44,39c-0.55228,0 -1,0.44772 -1,1v4c0,0.55228 0.44772,1 1,1h4c0.55228,0 1,-0.44772 1,-1v-4c0,-0.55228 -0.44772,-1 -1,-1zM51,39c-0.55228,0 -1,0.44772 -1,1v4c0,0.55228 0.44772,1 1,1h4c0.55228,0 1,-0.44772 1,-1v-4c0,-0.55228 -0.44772,-1 -1,-1zM20,40v2.61328l-0.31641,-0.09961c-0.41051,-0.13691 -0.68638,-0.52234 -0.68359,-0.95508v-0.55859c0,-0.55228 0.44772,-1 1,-1zM38,41h2v2h-2zM45,41h2v2h-2zM52,41h2v2h-2zM22,45.38672l0.31641,0.10547c0.40846,0.13624 0.68385,0.51864 0.68359,0.94922v0.55859c0,0.55228 -0.44772,1 -1,1zM37,46c-0.55228,0 -1,0.44772 -1,1v4c0,0.55228 0.44772,1 1,1h4c0.55228,0 1,-0.44772 1,-1v-4c0,-0.55228 -0.44772,-1 -1,-1zM44,46c-0.55228,0 -1,0.44772 -1,1v4c0,0.55228 0.44772,1 1,1h4c0.55228,0 1,-0.44772 1,-1v-4c0,-0.55228 -0.44772,-1 -1,-1zM51,46c-0.55228,0 -1,0.44772 -1,1v4c0,0.55228 0.44772,1 1,1h4c0.55228,0 1,-0.44772 1,-1v-4c0,-0.55228 -0.44772,-1 -1,-1zM38,48h2v2h-2zM45,48h2v2h-2zM52,48h2v2h-2zM2,56h7v3c0,0.55228 0.44772,1 1,1h44c0.55228,0 1,-0.44772 1,-1v-3h7v3c0,1.65685 -1.34315,3 -3,3h-54c-1.65685,0 -3,-1.34315 -3,-3zM11,56h42v2h-42z"></path></g></g></svg>